<svg width="22" height="22" viewBox="0 0 22 22" fill="none" xmlns="http://www.w3.org/2000/svg">
<path d="M7.39932 16V6.2H11.8093C12.4533 6.2 12.9947 6.312 13.4333 6.536C13.872 6.75067 14.2033 7.04933 14.4273 7.432C14.6607 7.81467 14.7773 8.25333 14.7773 8.748C14.7773 9.20533 14.684 9.63 14.4973 10.022C14.32 10.414 13.9887 10.708 13.5033 10.904V10.918C13.9793 11.0393 14.376 11.296 14.6933 11.688C15.0107 12.08 15.1693 12.556 15.1693 13.116C15.1693 13.704 15.0433 14.2127 14.7913 14.642C14.5393 15.0713 14.1753 15.4073 13.6993 15.65C13.2233 15.8833 12.6447 16 11.9633 16H7.39932ZM8.88332 14.684H11.8933C12.4813 14.684 12.92 14.5533 13.2093 14.292C13.4987 14.0307 13.6433 13.6247 13.6433 13.074C13.6433 12.6073 13.494 12.2527 13.1953 12.01C12.8967 11.758 12.486 11.632 11.9633 11.632H8.88332V14.684ZM8.88332 10.316H11.8653C12.36 10.316 12.7287 10.1947 12.9713 9.952C13.2233 9.70933 13.3493 9.35933 13.3493 8.902C13.3493 8.46333 13.2187 8.12267 12.9573 7.88C12.696 7.63733 12.2853 7.516 11.7253 7.516H8.88332V10.316Z" fill="#141414"/>
<circle cx="11" cy="11" r="10.5" stroke="black"/>
</svg>
