<svg width="22" height="22" viewBox="0 0 22 22" fill="none" xmlns="http://www.w3.org/2000/svg">
<path d="M10.8783 16.098C9.945 16.098 9.105 15.9113 8.35834 15.538C7.621 15.1553 7.033 14.5907 6.59434 13.844C6.165 13.0973 5.95034 12.178 5.95034 11.086C5.95034 10.2833 6.081 9.574 6.34234 8.958C6.60367 8.33267 6.963 7.80533 7.42034 7.376C7.87767 6.93733 8.40967 6.61067 9.01634 6.396C9.63234 6.172 10.2857 6.06 10.9763 6.06C11.4803 6.06 11.9657 6.11133 12.4323 6.214C12.899 6.31667 13.3377 6.44733 13.7483 6.606L14.0703 6.732L13.7763 7.88L13.3703 7.782C12.941 7.68867 12.5397 7.60933 12.1663 7.544C11.8023 7.46933 11.429 7.432 11.0463 7.432C10.365 7.432 9.75367 7.572 9.21234 7.852C8.671 8.12267 8.24634 8.52867 7.93834 9.07C7.63034 9.602 7.47634 10.2693 7.47634 11.072C7.47634 11.884 7.621 12.5607 7.91034 13.102C8.19967 13.6433 8.60567 14.0493 9.12834 14.32C9.66034 14.5907 10.2717 14.726 10.9623 14.726C11.3357 14.726 11.723 14.6887 12.1243 14.614C12.5257 14.5393 12.9457 14.4413 13.3843 14.32L14.0283 14.124L14.3363 15.244L13.8463 15.454C13.361 15.6593 12.8663 15.818 12.3623 15.93C11.8583 16.042 11.3637 16.098 10.8783 16.098Z" fill="#141414"/>
<circle cx="11" cy="11" r="10.5" stroke="black"/>
</svg>
