<svg width="18" height="18" viewBox="0 0 18 18" fill="none" xmlns="http://www.w3.org/2000/svg">
<g clip-path="url(#clip0_344_67686)">
<path d="M17.6486 9C17.6486 13.7764 13.7764 17.6486 9 17.6486C4.22356 17.6486 0.351562 13.7764 0.351562 9C0.351562 4.22356 4.22356 0.351562 9 0.351562C13.7764 0.351562 17.6486 4.22356 17.6486 9Z" fill="#92F989"/>
<path d="M12.0118 4.9165L7.82227 9.106L5.98837 7.27211L3.99957 9.26091L5.83347 11.0948L7.82227 13.0835L14.0004 6.9053L12.0118 4.9165Z" fill="white"/>
<path d="M7.82227 13.435C7.72902 13.435 7.63962 13.3979 7.5737 13.332L3.75101 9.50948C3.61368 9.37215 3.61368 9.14954 3.75101 9.01221L5.73967 7.02354C5.877 6.88621 6.09961 6.88621 6.23694 7.02354L7.82227 8.60887L11.7631 4.66794C11.829 4.60202 11.9185 4.56494 12.0118 4.56494C12.1049 4.56494 12.1944 4.60202 12.2603 4.66794L14.249 6.65674C14.3863 6.79393 14.3863 7.01654 14.249 7.15387L8.07083 13.3322C8.00491 13.3981 7.91551 13.435 7.82227 13.435ZM4.49684 9.26091L7.82227 12.5863L13.5033 6.9053L12.0118 5.41364L8.07083 9.35457C7.9335 9.4919 7.71089 9.4919 7.5737 9.35457L5.98837 7.76924L4.49684 9.26091Z" fill="black"/>
<path d="M8.9978 18C8.76819 18 8.5383 17.9912 8.308 17.9736C6.16923 17.8097 4.15489 16.8828 2.63603 15.3641C0.936172 13.6641 0 11.4041 0 9C0 6.59605 0.936172 4.33589 2.63603 2.63603C4.33589 0.936172 6.59605 0 9 0C11.4041 0 13.6641 0.936172 15.3641 2.63603C16.8828 4.15489 17.8097 6.16923 17.9736 8.308C18.1358 10.4236 17.5467 12.5322 16.3148 14.2458C16.2015 14.4035 15.9818 14.4393 15.8242 14.326C15.6665 14.2127 15.6307 13.993 15.744 13.8354C18.125 10.5234 17.7561 6.02257 14.8668 3.13316C11.6319 -0.101761 6.36822 -0.101761 3.1333 3.13316C-0.101761 6.36822 -0.101761 11.6318 3.1333 14.8668C6.02257 17.756 10.5235 18.125 13.8355 15.7438C13.9931 15.6305 14.2127 15.6665 14.3262 15.8242C14.4395 15.9818 14.4035 16.2014 14.2458 16.3148C12.7187 17.4126 10.8777 18 8.9978 18Z" fill="black"/>
<path d="M15.1155 15.4671C15.023 15.4671 14.9323 15.4295 14.867 15.3641C14.8016 15.2986 14.764 15.208 14.764 15.1155C14.764 15.023 14.8016 14.9323 14.867 14.867C14.9323 14.8016 15.023 14.764 15.1155 14.764C15.208 14.764 15.2986 14.8016 15.3641 14.867C15.4295 14.9323 15.4671 15.023 15.4671 15.1155C15.4671 15.208 15.4295 15.2986 15.3641 15.3641C15.2986 15.4295 15.208 15.4671 15.1155 15.4671Z" fill="black"/>
</g>
<defs>
<clipPath id="clip0_344_67686">
<rect width="18" height="18" fill="white"/>
</clipPath>
</defs>
</svg>
