<svg width="24" height="24" viewBox="0 0 24 24" fill="none" xmlns="http://www.w3.org/2000/svg">
<g clip-path="url(#clip0_488_368)">
<path d="M12 24C18.6274 24 24 18.6274 24 12C24 5.37258 18.6274 0 12 0C5.37258 0 0 5.37258 0 12C0 18.6274 5.37258 24 12 24Z" fill="#EAB14D"/>
<path d="M12 0C11.7858 0 11.5729 0.00585938 11.3615 0.0169219C17.692 0.348891 22.723 5.5868 22.723 12C22.723 18.4132 17.692 23.6511 11.3615 23.9831C11.5729 23.9941 11.7858 24 12 24C18.6274 24 24 18.6274 24 12C24 5.37258 18.6274 0 12 0Z" fill="#E49542"/>
<path d="M12 21.351C17.1644 21.351 21.351 17.1644 21.351 12C21.351 6.83561 17.1644 2.64905 12 2.64905C6.83561 2.64905 2.64905 6.83561 2.64905 12C2.64905 17.1644 6.83561 21.351 12 21.351Z" fill="#F4FBFF"/>
<path d="M12 2.64905C11.741 2.64905 11.4847 2.66006 11.231 2.68069C16.0357 3.07181 19.813 7.09458 19.813 12C19.813 16.9054 16.0357 20.9281 11.231 21.3193C11.4847 21.34 11.741 21.351 12 21.351C17.1644 21.351 21.351 17.1644 21.351 12C21.351 6.83569 17.1644 2.64905 12 2.64905Z" fill="#DAF1F4"/>
<path d="M12 5.52705C11.8 5.52705 11.6379 5.36491 11.6379 5.1649V4.63334C11.6379 4.43332 11.8 4.27118 12 4.27118C12.2001 4.27118 12.3622 4.43332 12.3622 4.63334V5.1649C12.3622 5.36491 12.2001 5.52705 12 5.52705Z" fill="#2B4D66"/>
<path d="M16.8135 7.53722C16.7208 7.53722 16.6281 7.50183 16.5574 7.43114C16.4159 7.28967 16.4159 7.06041 16.5574 6.91894L16.9333 6.5431C17.0747 6.40163 17.304 6.40167 17.4455 6.5431C17.5869 6.68456 17.5869 6.91383 17.4454 7.0553L17.0696 7.43119C16.9988 7.50183 16.9062 7.53722 16.8135 7.53722Z" fill="#2B4D66"/>
<path d="M19.3273 12.3622H18.7957C18.5956 12.3622 18.4335 12.2001 18.4335 12C18.4335 11.8 18.5957 11.6379 18.7957 11.6379H19.3273C19.5273 11.6379 19.6894 11.8 19.6894 12C19.6894 12.2001 19.5273 12.3622 19.3273 12.3622Z" fill="#2B4D66"/>
<path d="M17.1614 17.5515C17.0688 17.5515 16.976 17.5161 16.9053 17.4454L16.5295 17.0696C16.388 16.9281 16.388 16.6988 16.5295 16.5573C16.6709 16.416 16.9002 16.416 17.0417 16.5573L17.4176 16.9332C17.559 17.0746 17.559 17.3039 17.4176 17.4454C17.3468 17.5161 17.2541 17.5515 17.1614 17.5515Z" fill="#2B4D66"/>
<path d="M11.9605 19.6895C11.7605 19.6895 11.5984 19.5273 11.5984 19.3273V18.7957C11.5984 18.5957 11.7605 18.4336 11.9605 18.4336C12.1606 18.4336 12.3227 18.5957 12.3227 18.7957V19.3273C12.3227 19.5273 12.1606 19.6895 11.9605 19.6895Z" fill="#2B4D66"/>
<path d="M6.77122 17.5236C6.67855 17.5236 6.58583 17.4882 6.51514 17.4174C6.37367 17.276 6.37372 17.0467 6.51514 16.9052L6.89103 16.5294C7.0325 16.388 7.26177 16.388 7.40324 16.5294C7.54466 16.6709 7.54466 16.9002 7.40319 17.0416L7.0273 17.4175C6.95661 17.4882 6.86389 17.5236 6.77122 17.5236Z" fill="#2B4D66"/>
<path d="M5.16484 12.3228H4.63327C4.43326 12.3228 4.27112 12.1606 4.27112 11.9606C4.27112 11.7606 4.43326 11.5984 4.63327 11.5984H5.16484C5.36485 11.5984 5.52699 11.7606 5.52699 11.9606C5.52704 12.1606 5.36485 12.3228 5.16484 12.3228Z" fill="#2B4D66"/>
<path d="M7.17501 7.50933C7.08234 7.50933 6.98967 7.47399 6.91893 7.40326L6.54304 7.02741C6.40162 6.88594 6.40157 6.65668 6.54299 6.51521C6.68446 6.37379 6.91373 6.37374 7.0552 6.51516L7.43109 6.89105C7.57251 7.03247 7.57256 7.26179 7.43113 7.40326C7.36035 7.47394 7.26768 7.50933 7.17501 7.50933Z" fill="#2B4D66"/>
<path d="M12 12.3622H8.92405C8.72403 12.3622 8.56189 12.2 8.56189 12C8.56189 11.8 8.72403 11.6379 8.92405 11.6379H11.6378V7.03019C11.6378 6.83017 11.7999 6.66803 11.9999 6.66803C12.2 6.66803 12.3621 6.83017 12.3621 7.03019V12C12.3621 12.2 12.2 12.3622 12 12.3622Z" fill="#2B4D66"/>
<path d="M15.7156 14.273C15.6598 14.273 15.6033 14.2601 15.5503 14.2328L11.8344 12.322C11.6565 12.2306 11.5865 12.0122 11.6779 11.8343C11.7694 11.6565 11.9877 11.5864 12.1656 11.6779L15.8815 13.5886C16.0594 13.6801 16.1295 13.8985 16.038 14.0763C15.9737 14.2012 15.847 14.273 15.7156 14.273Z" fill="#DA4A54"/>
<path d="M12 12.9666C12.5339 12.9666 12.9666 12.5339 12.9666 12C12.9666 11.4661 12.5339 11.0333 12 11.0333C11.4661 11.0333 11.0333 11.4661 11.0333 12C11.0333 12.5339 11.4661 12.9666 12 12.9666Z" fill="#365E7D"/>
</g>
<defs>
<clipPath id="clip0_488_368">
<rect width="24" height="24" fill="white"/>
</clipPath>
</defs>
</svg>
