<svg width="28" height="28" viewBox="0 0 28 28" fill="none" xmlns="http://www.w3.org/2000/svg">
<g clip-path="url(#clip0_344_70636)">
<path d="M27.6162 8.24616C27.2854 7.96381 26.8187 7.90431 26.4275 8.09473L20.4423 11.0085L14.8263 4.53338C14.6186 4.29384 14.3171 4.15625 14 4.15625C13.6829 4.15625 13.3815 4.29384 13.1737 4.53338L7.55777 11.0084L1.57255 8.09468C1.18137 7.90431 0.714668 7.96376 0.383809 8.24611C0.0529495 8.52846 -0.0791755 8.98007 0.0473167 9.39624L4.20357 23.0681C4.34362 23.5289 4.76849 23.8438 5.25001 23.8438H22.75C23.2315 23.8438 23.6564 23.5289 23.7964 23.0682L27.9527 9.3963C28.0792 8.98012 27.9471 8.52852 27.6162 8.24616ZM21.9393 21.6562H6.06064L2.86957 11.1591L7.35515 13.3428C7.80053 13.5596 8.3357 13.4501 8.66016 13.0761L14 6.91934L19.3399 13.0761C19.6643 13.4502 20.1997 13.5595 20.6449 13.3428L25.1304 11.1591L21.9393 21.6562Z" fill="white"/>
</g>
<defs>
<clipPath id="clip0_344_70636">
<rect width="28" height="28" fill="white"/>
</clipPath>
</defs>
</svg>
