<svg width="22" height="22" viewBox="0 0 22 22" fill="none" xmlns="http://www.w3.org/2000/svg">
<path d="M7.4208 16V6.2H10.9908C12.0175 6.2 12.9088 6.39133 13.6648 6.774C14.4301 7.15667 15.0228 7.71667 15.4428 8.454C15.8628 9.182 16.0728 10.0687 16.0728 11.114C16.0728 12.122 15.8581 12.9947 15.4288 13.732C15.0088 14.46 14.4068 15.02 13.6228 15.412C12.8481 15.804 11.9241 16 10.8508 16H7.4208ZM8.9048 14.684H10.9348C11.7095 14.684 12.3628 14.544 12.8948 14.264C13.4361 13.9747 13.8468 13.5687 14.1268 13.046C14.4068 12.514 14.5468 11.87 14.5468 11.114C14.5468 10.3207 14.4068 9.658 14.1268 9.126C13.8561 8.58467 13.4548 8.18333 12.9228 7.922C12.3908 7.65133 11.7281 7.516 10.9348 7.516H8.9048V14.684Z" fill="#141414"/>
<circle cx="11" cy="11" r="10.5" stroke="black"/>
</svg>
