<svg width="18" height="18" viewBox="0 0 18 18" fill="none" xmlns="http://www.w3.org/2000/svg">
<g clip-path="url(#clip0_344_67707)">
<path d="M9.00001 17.6969C13.802 17.6969 17.6947 13.8041 17.6947 9.00214C17.6947 4.20019 13.802 0.307434 9.00001 0.307434C4.19805 0.307434 0.305298 4.20019 0.305298 9.00214C0.305298 13.8041 4.19805 17.6969 9.00001 17.6969Z" fill="#F07281"/>
<path d="M9.00001 0.307434C8.79316 0.307434 8.58812 0.315182 8.38489 0.329365C12.8998 0.645001 16.4645 4.40706 16.4645 9.00214C16.4645 13.5973 12.8998 17.3593 8.38489 17.6749C8.58812 17.6891 8.79316 17.6969 9.00001 17.6969C13.802 17.6969 17.6947 13.8041 17.6947 9.00214C17.6947 4.20021 13.802 0.307434 9.00001 0.307434Z" fill="#EB5569"/>
<path d="M13.1495 11.1581L11.5421 9.55075C11.3791 9.38768 11.3791 9.12328 11.5421 8.96018L13.1495 7.35285C13.468 7.03431 13.468 6.51781 13.1495 6.19926L12.0562 5.10598C11.7376 4.78743 11.2211 4.78743 10.9026 5.10598L9.29525 6.7133C9.13219 6.87637 8.86779 6.87637 8.70469 6.7133L7.09736 5.10598C6.77881 4.78743 6.26232 4.78743 5.94377 5.10598L4.85048 6.19926C4.53194 6.51781 4.53194 7.03431 4.85048 7.35285L6.45781 8.96018C6.62087 9.12324 6.62087 9.38764 6.45781 9.55075L4.85048 11.1581C4.53194 11.4766 4.53194 11.9931 4.85048 12.3117L5.94377 13.4049C6.26232 13.7235 6.77881 13.7235 7.09736 13.4049L8.70469 11.7976C8.86775 11.6346 9.13215 11.6346 9.29525 11.7976L10.9026 13.4049C11.2211 13.7235 11.7376 13.7235 12.0562 13.4049L13.1495 12.3117C13.468 11.9931 13.468 11.4767 13.1495 11.1581Z" fill="#FFEEE6"/>
<path d="M6.3154 5.57064L7.99499 7.32918C8.15805 7.49225 8.42245 7.49225 8.58556 7.32918L9.00002 6.83568C8.89316 6.83568 8.78629 6.79489 8.70476 6.71336L7.09744 5.10604C6.77889 4.78749 6.26239 4.78749 5.94385 5.10604L5.71716 5.33272C5.93303 5.3271 6.15065 5.40589 6.3154 5.57064Z" fill="#FFDFCF"/>
<path d="M7.94706 11.246L6.23549 13.0365C6.11264 13.1593 5.96028 13.2343 5.80127 13.2624L5.94388 13.405C6.26243 13.7235 6.77892 13.7235 7.09747 13.405L8.70479 11.7977C8.78633 11.7161 8.89319 11.6753 9.00006 11.6753L8.53759 11.246C8.37452 11.0829 8.11013 11.0829 7.94706 11.246Z" fill="#FFDFCF"/>
<path d="M11.5422 9.55083C11.3791 9.38776 11.3791 9.12337 11.5422 8.9603L13.1495 7.35298C13.468 7.03443 13.468 6.51793 13.1495 6.19939L12.0562 5.1061C11.7377 4.78755 11.2212 4.78755 10.9026 5.1061L10.5806 5.42809C10.8395 5.3759 11.1186 5.44989 11.3193 5.65059L11.9193 6.19935C12.2378 6.51789 12.2378 7.03439 11.9193 7.35293L10.3119 8.96026C10.1489 9.12332 10.1489 9.38772 10.3119 9.55079L11.9193 11.1581C12.2378 11.4767 12.2378 11.9932 11.9193 12.3117L11.3673 12.8446C11.1439 13.068 10.8234 13.1341 10.5419 13.0442L10.9026 13.405C11.2212 13.7235 11.7377 13.7235 12.0562 13.405L13.1495 12.3117C13.468 11.9932 13.468 11.4767 13.1495 11.1581L11.5422 9.55083Z" fill="#FFDFCF"/>
<path d="M15.3655 2.63667C13.6652 0.936373 11.4045 0 9.00001 0C6.59544 0 4.33479 0.936414 2.63449 2.63667C0.934237 4.33692 -0.00213623 6.59757 -0.00213623 9.00215C-0.00213623 11.2744 0.846802 13.444 2.38829 15.1115C3.92102 16.7695 5.99966 17.7856 8.24138 17.9728C8.4108 17.9876 8.55919 17.8611 8.57333 17.692C8.58743 17.5228 8.46175 17.3742 8.29253 17.36C6.20442 17.1857 4.26793 16.2389 2.83978 14.6941C1.40363 13.1406 0.612739 11.1192 0.612739 9.00215C0.612739 4.37738 4.37529 0.614875 9.00001 0.614875C13.6248 0.614875 17.3873 4.37738 17.3873 9.00215C17.3873 11.1192 16.5963 13.1408 15.1602 14.6942C13.732 16.2391 11.7954 17.1858 9.70724 17.36C9.53807 17.3741 9.41235 17.5228 9.42645 17.692C9.43981 17.8525 9.57422 17.9739 9.73245 17.9738C9.74102 17.9738 9.74971 17.9735 9.7584 17.9728C12.0002 17.7857 14.0789 16.7696 15.6117 15.1116C17.1532 13.4442 18.0022 11.2745 18.0022 9.00215C18.0022 6.59761 17.0658 4.33692 15.3655 2.63667Z" fill="black"/>
<path d="M12.2736 13.6224L13.3668 12.5291C13.579 12.317 13.6958 12.0349 13.6958 11.735C13.6958 11.435 13.579 11.1529 13.3669 10.9407L11.7596 9.33342C11.7552 9.29878 11.6935 9.32137 11.7596 9.17765L13.3669 7.57037C13.8048 7.13241 13.8048 6.4199 13.3669 5.98194L12.2736 4.88869C11.8357 4.45082 11.1232 4.45078 10.6852 4.88869L9.07787 6.49598C9.04979 6.5241 9.01704 6.52824 9.00002 6.52824C8.98301 6.52824 8.95022 6.52406 8.92214 6.49598L8.61798 6.19186C8.49792 6.07184 8.30325 6.07179 8.18322 6.1919C8.06316 6.31196 8.0632 6.50663 8.18326 6.62666L8.48738 6.93073C8.62433 7.06769 8.80638 7.14311 9.00006 7.14311C9.19371 7.14311 9.37579 7.06773 9.51275 6.93078L11.1201 5.32349C11.3182 5.12525 11.6407 5.12525 11.8389 5.32349L12.9321 6.41674C13.1303 6.61489 13.1303 6.93737 12.9321 7.13553L11.3249 8.74285C11.2985 8.76921 11.2751 8.7977 11.2535 8.82717L10.7841 8.35778C10.664 8.23775 10.4693 8.23775 10.3493 8.35778C10.2292 8.47788 10.2292 8.67251 10.3493 8.79258L12.9322 11.3755C13.0282 11.4715 13.0811 11.5991 13.0811 11.7349C13.0811 11.8707 13.0282 11.9983 12.9322 12.0943L11.8389 13.1876C11.6408 13.3858 11.3183 13.3858 11.1201 13.1876L9.51275 11.5803C9.23007 11.2976 8.7701 11.2976 8.48746 11.5803L6.88014 13.1876C6.78414 13.2836 6.65653 13.3365 6.52076 13.3365C6.385 13.3365 6.25735 13.2836 6.16135 13.1876L5.06806 12.0943C4.97206 11.9983 4.91922 11.8707 4.91922 11.7349C4.91922 11.5992 4.9721 11.4715 5.06806 11.3755L6.67538 9.76814C6.8123 9.63119 6.88772 9.44914 6.88772 9.2555C6.88772 9.06181 6.8123 8.87977 6.67538 8.74281L5.06806 7.13553C4.8699 6.93733 4.8699 6.61485 5.06806 6.4167L6.16135 5.32341C6.25735 5.22741 6.38496 5.17453 6.52076 5.17453C6.65653 5.17453 6.78414 5.22741 6.88018 5.32345L7.15999 5.60326C7.28005 5.72328 7.47472 5.72328 7.59475 5.60326C7.71481 5.48315 7.71481 5.28852 7.59475 5.16846L7.31494 4.88869C7.1028 4.67652 6.82074 4.55969 6.52072 4.55969C6.2207 4.55969 5.93864 4.67656 5.72651 4.88865L4.63322 5.98194C4.1953 6.41985 4.1953 7.13237 4.63322 7.57033L6.24054 9.17765C6.24493 9.21229 6.30658 9.18966 6.24054 9.33338L4.63322 10.9407C4.42109 11.1529 4.30426 11.4349 4.30426 11.7349C4.30426 12.0349 4.42109 12.317 4.63322 12.5291L5.72647 13.6223C5.9386 13.8345 6.22066 13.9513 6.52068 13.9513C6.8207 13.9513 7.10272 13.8345 7.31485 13.6224L8.92218 12.0151C8.9651 11.9721 9.03499 11.9721 9.07791 12.0151L10.6852 13.6224C11.1231 14.0603 11.8357 14.0603 12.2736 13.6224Z" fill="black"/>
</g>
<defs>
<clipPath id="clip0_344_67707">
<rect width="18" height="18" fill="white"/>
</clipPath>
</defs>
</svg>
