<svg width="28" height="28" viewBox="0 0 28 28" fill="none" xmlns="http://www.w3.org/2000/svg">
<g clip-path="url(#clip0_344_70659)">
<path d="M28 4.375V23.625C28 26.0374 26.0374 28 23.625 28H12.6328C10.2204 28 8.25781 26.0374 8.25781 23.625V21.4375C8.25781 20.8334 8.74744 20.3438 9.35156 20.3438C9.95569 20.3438 10.4453 20.8334 10.4453 21.4375V23.625C10.4453 24.8311 11.4267 25.8125 12.6328 25.8125H23.625C24.8311 25.8125 25.8125 24.8311 25.8125 23.625V4.375C25.8125 3.16888 24.8311 2.1875 23.625 2.1875H12.6328C11.4267 2.1875 10.4453 3.16888 10.4453 4.375V6.5625C10.4453 7.16663 9.95569 7.65625 9.35156 7.65625C8.74744 7.65625 8.25781 7.16663 8.25781 6.5625V4.375C8.25781 1.96255 10.2204 0 12.6328 0H23.625C26.0374 0 28 1.96255 28 4.375ZM12.3547 16.8329C11.9259 17.2584 11.9232 17.951 12.3485 18.3797C12.5623 18.5952 12.8437 18.7031 13.125 18.7031C13.4036 18.7031 13.6821 18.5974 13.8953 18.3859L16.3642 15.9365C16.885 15.4197 17.1719 14.7321 17.1719 14C17.1719 13.2679 16.885 12.5803 16.3642 12.0635L13.8953 9.61411C13.4666 9.18878 12.774 9.19135 12.3485 9.6203C11.9232 10.049 11.9259 10.7416 12.3547 11.1669L14.1077 12.9062H1.09375C0.489624 12.9062 0 13.3959 0 14C0 14.6041 0.489624 15.0938 1.09375 15.0938H14.1077L12.3547 16.8329Z" fill="white"/>
</g>
<defs>
<clipPath id="clip0_344_70659">
<rect width="28" height="28" fill="white"/>
</clipPath>
</defs>
</svg>
