<svg width="28" height="23" viewBox="0 0 28 23" fill="none" xmlns="http://www.w3.org/2000/svg">
<path d="M2 4H18C19.1045 4 20 3.10453 20 2C20 0.895467 19.1045 0 18 0H2C0.895467 0 0 0.895467 0 2C0 3.10453 0.895467 4 2 4Z" fill="white"/>
<path d="M26 9.5H2C0.895466 9.5 0 10.3955 0 11.5C0 12.6045 0.895466 13.5 2 13.5H26C27.1045 13.5 28 12.6045 28 11.5C28 10.3955 27.1045 9.5 26 9.5Z" fill="white"/>
<path d="M18 19H2C0.895467 19 0 19.8955 0 21C0 22.1045 0.895467 23 2 23H18C19.1045 23 20 22.1045 20 21C20 19.8955 19.1045 19 18 19Z" fill="white"/>
</svg>
