<svg width="28" height="28" viewBox="0 0 28 28" fill="none" xmlns="http://www.w3.org/2000/svg">
<g clip-path="url(#clip0_344_70647)">
<path d="M14 0C6.2804 0 0 6.28049 0 14.0001C0 21.7197 6.2804 28 14 28C21.7196 28 28 21.7197 28 14.0001C28 6.28049 21.7196 0 14 0ZM14 25.4545C7.68388 25.4545 2.54545 20.3161 2.54545 14.0001C2.54545 7.68405 7.68388 2.54545 14 2.54545C20.3161 2.54545 25.4545 7.68405 25.4545 14.0001C25.4545 20.3161 20.316 25.4545 14 25.4545Z" fill="white"/>
<path d="M13.9999 5.93945C13.0643 5.93945 12.3032 6.70105 12.3032 7.63719C12.3032 8.57247 13.0643 9.33339 13.9999 9.33339C14.9354 9.33339 15.6965 8.57247 15.6965 7.63719C15.6965 6.70105 14.9354 5.93945 13.9999 5.93945Z" fill="white"/>
<path d="M14 11.8788C13.2971 11.8788 12.7273 12.4486 12.7273 13.1515V20.7879C12.7273 21.4908 13.2971 22.0606 14 22.0606C14.7029 22.0606 15.2727 21.4908 15.2727 20.7879V13.1515C15.2727 12.4486 14.7029 11.8788 14 11.8788Z" fill="white"/>
</g>
<defs>
<clipPath id="clip0_344_70647">
<rect width="28" height="28" fill="white"/>
</clipPath>
</defs>
</svg>
