<svg width="28" height="28" viewBox="0 0 28 28" fill="none" xmlns="http://www.w3.org/2000/svg">
<g clip-path="url(#clip0_344_70625)">
<path d="M24.7188 15.0938H18.375C16.5657 15.0938 15.0938 16.5657 15.0938 18.375V24.7188C15.0938 26.528 16.5657 28 18.375 28H24.7188C26.528 28 28 26.528 28 24.7188V18.375C28 16.5657 26.528 15.0938 24.7188 15.0938ZM25.8125 24.7188C25.8125 25.3218 25.3218 25.8125 24.7188 25.8125H18.375C17.7719 25.8125 17.2812 25.3218 17.2812 24.7188V18.375C17.2812 17.7719 17.7719 17.2812 18.375 17.2812H24.7188C25.3218 17.2812 25.8125 17.7719 25.8125 18.375V24.7188ZM9.625 15.0938H3.28125C1.47197 15.0938 0 16.5657 0 18.375V24.7188C0 26.528 1.47197 28 3.28125 28H9.625C11.4343 28 12.9062 26.528 12.9062 24.7188V18.375C12.9062 16.5657 11.4343 15.0938 9.625 15.0938ZM10.7188 24.7188C10.7188 25.3218 10.2281 25.8125 9.625 25.8125H3.28125C2.67816 25.8125 2.1875 25.3218 2.1875 24.7188V18.375C2.1875 17.7719 2.67816 17.2812 3.28125 17.2812H9.625C10.2281 17.2812 10.7188 17.7719 10.7188 18.375V24.7188ZM9.625 0H3.28125C1.47197 0 0 1.47197 0 3.28125V9.625C0 11.4343 1.47197 12.9062 3.28125 12.9062H9.625C11.4343 12.9062 12.9062 11.4343 12.9062 9.625V3.28125C12.9062 1.47197 11.4343 0 9.625 0ZM10.7188 9.625C10.7188 10.2281 10.2281 10.7188 9.625 10.7188H3.28125C2.67816 10.7188 2.1875 10.2281 2.1875 9.625V3.28125C2.1875 2.67816 2.67816 2.1875 3.28125 2.1875H9.625C10.2281 2.1875 10.7188 2.67816 10.7188 3.28125V9.625ZM24.7188 0H18.375C16.5657 0 15.0938 1.47197 15.0938 3.28125V9.625C15.0938 11.4343 16.5657 12.9062 18.375 12.9062H24.7188C26.528 12.9062 28 11.4343 28 9.625V3.28125C28 1.47197 26.528 0 24.7188 0ZM25.8125 9.625C25.8125 10.2281 25.3218 10.7188 24.7188 10.7188H18.375C17.7719 10.7188 17.2812 10.2281 17.2812 9.625V3.28125C17.2812 2.67816 17.7719 2.1875 18.375 2.1875H24.7188C25.3218 2.1875 25.8125 2.67816 25.8125 3.28125V9.625Z" fill="white"/>
</g>
<defs>
<clipPath id="clip0_344_70625">
<rect width="28" height="28" fill="white"/>
</clipPath>
</defs>
</svg>
