<svg width="173" height="148" viewBox="0 0 173 148" fill="none" xmlns="http://www.w3.org/2000/svg">
<path d="M158.45 96.7225C164.193 63.7453 142.116 32.3558 109.139 26.6122C76.1613 20.8686 44.7719 42.9459 39.0283 75.9231C33.2847 108.9 55.3619 140.29 88.3392 146.033C121.316 151.777 152.706 129.7 158.45 96.7225Z" fill="#FFB12B"/>
<path d="M109.466 128.144C139.019 120.561 157.861 92.4469 154.668 62.9695C155.774 65.622 156.713 68.391 157.445 71.2514C165.76 103.672 146.22 136.7 113.799 145.024C81.3776 153.339 48.3496 133.798 40.0261 101.377C39.2861 98.5087 38.7871 95.6399 38.4712 92.7795C49.8547 120.153 79.9058 135.719 109.466 128.136V128.144Z" fill="#FF9C2B"/>
<path d="M141.599 129.18C165.269 105.511 165.269 67.1351 141.599 43.4656C117.93 19.7961 79.5541 19.7961 55.8846 43.4656C32.2151 67.1351 32.2151 105.511 55.8846 129.18C79.5541 152.85 117.93 152.85 141.599 129.18Z" fill="#FFB12B"/>
<path d="M109.466 128.144C139.019 120.561 157.861 92.4469 154.668 62.9695C155.774 65.622 156.713 68.391 157.445 71.2514C165.76 103.672 146.22 136.7 113.799 145.024C81.3776 153.339 48.3496 133.798 40.0261 101.377C39.2861 98.5087 38.7871 95.6399 38.4712 92.7795C49.8547 120.153 79.9058 135.719 109.466 128.136V128.144Z" fill="#FF9C2B"/>
<path d="M108.926 55.2862C105.467 50.164 106.814 43.2042 111.936 39.7451C117.058 36.2859 124.018 37.633 127.477 42.7552C130.936 47.8773 129.589 54.8372 124.467 58.2963C119.345 61.7554 112.385 60.4083 108.926 55.2862Z" fill="white"/>
<path d="M108.061 55.8682C105.259 51.6108 105.309 46.0729 108.252 41.8986C111.188 37.741 116.692 35.8285 121.565 37.2671C126.521 38.7222 130.163 43.2208 130.412 48.4094C130.662 53.5316 127.618 58.2962 122.92 60.3085C117.582 62.5952 111.321 60.5829 108.053 55.8765C107.288 54.7789 109.009 53.6148 109.774 54.7124C112.185 58.1881 116.551 59.9509 120.684 58.8783C124.841 57.8056 127.926 54.1802 128.309 49.8979C128.683 45.6737 126.263 41.566 122.421 39.7949C118.605 38.0404 113.915 38.8636 110.963 41.8737C107.579 45.3328 107.122 50.6878 109.766 54.7124C110.497 55.8266 108.776 56.999 108.044 55.8765L108.061 55.8682Z" fill="#630000"/>
<path d="M111.046 46.3889C114.131 44.3101 118.314 45.1166 120.401 48.2016C122.48 51.2865 121.673 55.4691 118.588 57.5562C115.503 59.635 111.321 58.8284 109.234 55.7435C107.155 52.6585 107.961 48.476 111.046 46.3889Z" fill="#630000"/>
<path d="M82.9825 56.7579C85.8429 51.2781 83.7142 44.5096 78.2345 41.6575C72.7548 38.797 65.9862 40.9257 63.1341 46.4054C60.2736 51.8851 62.4023 58.6537 67.8821 61.5058C73.3618 64.3663 80.1304 62.2376 82.9825 56.7579Z" fill="white"/>
<path d="M83.9054 57.2401C86.2088 52.6917 85.5352 47.1954 82.1343 43.3787C78.75 39.5787 73.0624 38.3064 68.381 40.2854C63.6247 42.2894 60.5065 47.1704 60.8474 52.3591C61.18 57.473 64.7389 61.8634 69.6366 63.3352C75.1994 65.0065 81.1947 62.2958 83.9054 57.2485C84.5374 56.0677 82.6997 55.1115 82.0595 56.2839C80.0555 60.0091 75.9228 62.2542 71.6904 61.6555C67.4413 61.0568 63.9573 57.8056 63.0925 53.5981C62.236 49.4405 64.1818 45.0833 67.7989 42.8964C71.3911 40.7178 76.1474 41.0089 79.4152 43.6697C83.1737 46.7214 84.2297 51.9849 82.0595 56.2839C81.4525 57.473 83.2984 58.4375 83.9054 57.2485V57.2401Z" fill="#630000"/>
<path d="M79.8726 48.1599C76.5714 46.4387 72.5053 47.7192 70.784 51.0204C69.0628 54.3215 70.3433 58.3876 73.6445 60.1089C76.9456 61.8301 81.0117 60.5496 82.733 57.2484C84.4542 53.9473 83.1737 49.8812 79.8726 48.1599Z" fill="#630000"/>
<path d="M69.886 68.1664C67.2085 67.9087 64.3315 67.8338 61.7039 68.5572C66.8094 72.0496 72.3889 74.6689 78.2095 76.3819C78.75 74.17 79.4152 72.0081 80.1802 69.8711C76.771 69.1643 73.3535 68.5074 69.886 68.1664Z" fill="#FFF9E0"/>
<path d="M82.2258 70.295C81.4358 72.4736 80.7623 74.6855 80.2135 76.9389C84.712 78.0947 89.3436 78.7183 93.9835 78.8098C94.0999 76.6229 94.183 74.4443 94.2246 72.2574C90.1834 71.9248 86.2088 71.1182 82.2258 70.295Z" fill="#FFF9E0"/>
<path d="M96.3034 72.3739C96.2618 74.5192 96.187 76.6646 96.0706 78.8016C100.02 78.735 103.97 78.2694 107.87 77.3963C107.321 75.251 106.772 73.114 106.215 70.9603C104.627 71.3927 103.03 71.7669 101.409 72.0413C100.037 72.2741 98.6483 72.4238 97.2513 72.4155C96.9354 72.4155 96.6194 72.3905 96.2951 72.3739H96.3034Z" fill="#FFF9E0"/>
<path d="M108.219 70.4032L109.891 76.9057C112.194 76.307 114.472 75.5586 116.717 74.6606C118.181 74.0785 119.628 73.4133 121.041 72.7065C120.309 70.8855 119.569 69.0644 118.829 67.2434C115.254 68.1415 111.753 69.3472 108.219 70.4032Z" fill="#FFF9E0"/>
<path d="M120.85 66.7778C121.523 68.4325 122.197 70.0872 122.862 71.7503C123.469 71.4177 124.076 71.0767 124.658 70.7275C126.587 69.58 128.533 68.3244 129.747 66.4452C126.887 65.8797 123.802 66.1791 120.842 66.7778H120.85Z" fill="#FFF9E0"/>
<path d="M53.4801 72.166C55.6005 68.8815 58.9099 66.8443 62.7516 66.2123C67.0422 65.5055 71.441 66.1541 75.6734 66.9191C80.5128 67.8005 85.2941 68.973 90.1585 69.7047C92.5283 70.0623 94.8982 70.2868 97.2929 70.3367C100.32 70.3616 103.305 69.6049 106.19 68.7901C109.558 67.8338 112.884 66.6946 116.26 65.7633C122.222 64.1086 129.415 62.6285 134.986 66.2123C138.079 68.1997 140.066 71.3761 141.388 74.7354C142.835 78.4274 143.609 82.3937 143.01 86.3434C141.921 93.5361 136.624 99.0657 130.762 102.924C124.218 107.223 116.559 109.95 108.918 111.505C105.492 112.204 101.999 112.669 98.4986 112.769C94.9813 112.852 91.439 112.503 87.955 112.062C79.4651 110.998 70.7841 109.052 63.2255 104.895C56.1244 100.995 50.5033 94.6919 50.0459 86.2936C49.7965 81.5705 50.8691 76.1656 53.4635 72.166H53.4801ZM60.4067 100.629C61.3463 101.319 62.3275 101.968 63.3336 102.558C66.2273 99.2486 70.0856 97.0451 74.1517 95.4735C78.459 93.8022 83.049 92.7212 87.6307 92.1059C96.5861 90.9251 105.766 91.7816 114.048 95.5151C118.347 97.4526 122.28 100.163 125.565 103.548C131.335 100.546 137.056 96.3134 139.759 90.235C141.072 87.2581 141.472 83.932 140.948 80.7307C140.341 77.0471 138.935 73.089 136.474 70.2369C135.127 68.6736 133.556 67.6592 131.843 67.0106C130.803 68.9231 129.115 70.345 127.311 71.5341C125.032 73.0308 122.604 74.3113 120.126 75.4505C115.004 77.7871 109.566 79.4335 103.995 80.2733C93.8338 81.82 83.3816 80.7556 73.7443 77.1468C68.6387 75.226 63.8159 72.6566 59.4005 69.4636C59.2758 69.5218 59.1511 69.5717 59.0347 69.6382C55.2845 71.7503 53.5716 75.8996 52.7151 79.9241C51.842 84.0235 51.8254 88.3724 53.5217 92.2888C54.9769 95.6565 57.4797 98.467 60.415 100.646L60.4067 100.629ZM78.2095 76.3818C78.75 74.17 79.4152 72.008 80.1802 69.871C76.771 69.1642 73.3535 68.5073 69.886 68.1664C67.2085 67.9086 64.3315 67.8338 61.7039 68.5572C66.8094 72.0496 72.3889 74.6689 78.2095 76.3818ZM83.2735 109.268C89.9506 110.458 96.8605 111.156 103.612 110.291C110.473 109.41 117.308 107.489 123.577 104.529C111.312 92.4052 92.2789 91.5404 76.6213 96.779C72.3639 98.2092 68.2812 100.305 65.1962 103.606C70.7924 106.533 77.1286 108.179 83.2652 109.268H83.2735ZM93.9835 78.8099C94.0999 76.623 94.183 74.4444 94.2246 72.2575C90.1834 71.9249 86.2088 71.1183 82.2258 70.2951C81.4358 72.4737 80.7623 74.6855 80.2135 76.939C84.712 78.0948 89.3436 78.7184 93.9835 78.8099ZM107.87 77.4046C107.321 75.2593 106.772 73.1223 106.215 70.9686C104.627 71.401 103.03 71.7752 101.409 72.0496C100.037 72.2824 98.6483 72.4321 97.2514 72.4238C96.9354 72.4238 96.6194 72.3989 96.2951 72.3822C96.2535 74.5275 96.1787 76.6729 96.0623 78.8099C100.012 78.7434 103.962 78.2777 107.862 77.4046H107.87ZM116.709 74.6523C118.172 74.0702 119.619 73.405 121.033 72.6982C120.301 70.8772 119.561 69.0561 118.821 67.2351C115.245 68.1332 111.745 69.3389 108.211 70.3949L109.882 76.8974C112.185 76.2987 114.464 75.5503 116.709 74.6523ZM124.658 70.7275C126.587 69.58 128.533 68.3244 129.747 66.4452C126.887 65.8797 123.802 66.1791 120.842 66.7778C121.515 68.4325 122.189 70.0872 122.854 71.7503C123.461 71.4177 124.068 71.0767 124.65 70.7275H124.658Z" fill="#630000"/>
<path d="M52.7151 79.9158C51.842 84.0152 51.8254 88.364 53.5217 92.2805C54.9769 95.6482 57.4797 98.4587 60.415 100.637C61.3546 101.327 62.3358 101.976 63.342 102.566C66.2356 99.257 70.0939 97.0534 74.16 95.4819C78.4673 93.8105 83.0573 92.7295 87.639 92.1142C96.5945 90.9334 105.774 91.7899 114.056 95.5234C118.355 97.4609 122.288 100.172 125.573 103.556C131.344 100.554 137.065 96.3217 139.767 90.2433C141.081 87.2664 141.48 83.9404 140.956 80.739C140.349 77.0554 138.944 73.0973 136.483 70.2452C135.135 68.682 133.564 67.6675 131.851 67.0189C130.812 68.9314 129.124 70.3533 127.319 71.5424C125.041 73.0391 122.613 74.3197 120.135 75.4589C115.013 77.7954 109.575 79.4418 104.003 80.2817C93.8421 81.8283 83.3899 80.764 73.7526 77.1552C68.6471 75.2343 63.8242 72.6649 59.4089 69.4719C59.2841 69.5301 59.1594 69.58 59.043 69.6465C55.2928 71.7586 53.5799 75.9079 52.7234 79.9324L52.7151 79.9158Z" fill="#9B0000"/>
<path d="M76.6297 96.779C72.3723 98.2092 68.2895 100.305 65.2046 103.606C70.8007 106.533 77.1369 108.179 83.2735 109.268C89.9506 110.458 96.8605 111.156 103.612 110.291C110.473 109.41 117.308 107.489 123.577 104.529C111.312 92.4052 92.2789 91.5404 76.6213 96.779H76.6297Z" fill="#FF2948"/>
<path d="M93.8338 97.2946C89.9922 96.172 86.0258 95.4985 82.0345 95.249C96.4863 91.8731 112.701 93.7689 123.586 104.529C120.476 106.001 117.233 107.206 113.915 108.163C108.078 103.19 101.201 99.4399 93.8338 97.2946Z" fill="#CF001E"/>
<path d="M47.6761 11.6813C48.965 10.1513 51.0022 10.276 52.923 10.6751C53.7213 9.87688 54.295 8.97052 54.6942 7.9727C53.5134 8.23047 52.3909 8.65455 51.3099 9.21167C50.7444 9.5027 49.9129 9.26156 49.7882 8.56308C49.5471 7.33243 49.1978 6.11841 48.674 4.97922C48.4245 4.4221 48.1252 3.88162 47.8009 3.35776C47.6512 3.09999 47.4849 2.85053 47.3103 2.60107C47.1024 3.06673 46.6617 3.84836 46.6035 3.98971C46.3956 4.48863 46.2043 5.00417 46.0297 5.51971C45.614 6.72542 45.3063 7.95607 45.0568 9.20335C44.9571 9.76878 44.2835 10.0349 43.7763 9.91846C41.1903 9.31145 38.5543 9.00379 35.8935 9.00379C35.644 9.00379 35.3946 9.00378 35.1451 9.02041C34.9539 9.02041 34.7709 9.02873 34.588 9.04536C34.563 9.04536 34.5464 9.04536 34.5298 9.04536C34.6961 9.47775 35.062 9.97666 35.2615 10.3093C35.9267 11.4401 36.725 12.4962 37.6397 13.4441C38.388 14.234 39.3443 14.9159 39.7351 15.9719C40.1758 17.161 39.652 18.4083 39.311 19.5558C39.2279 19.8136 39.1115 20.6783 38.9285 21.1357C38.9618 21.1274 38.9867 21.1357 39.0117 21.1357C39.3443 21.1024 39.6852 21.0608 40.0178 21.0193C41.4896 20.853 42.9697 20.7033 44.4415 20.537C44.5164 20.5287 44.5912 20.5203 44.666 20.537C44.7409 20.088 44.8074 19.6306 44.8988 19.1899C45.1733 17.8429 45.5308 16.5041 45.9965 15.1986C46.4205 14.0095 46.8862 12.6625 47.7011 11.6813H47.6761Z" fill="#A2E846"/>
<path d="M22.3646 66.9274C21.8823 66.7778 21.3917 66.653 20.8928 66.5449C20.6434 66.4867 20.4022 66.4285 20.1445 66.387C20.1445 66.387 20.1445 66.387 20.1278 66.387C19.6788 69.7546 19.2381 73.114 18.7808 76.4733C21.7826 76.7893 24.7428 77.3298 27.6531 78.1031C28.5179 75.7665 29.3743 73.4383 30.2308 71.11C28.7257 69.8877 27.0793 68.8566 25.3165 68.0334C24.3603 67.5927 23.3708 67.2351 22.3646 66.9358V66.9274Z" fill="#FFB12B"/>
<path d="M136.765 22.7488C136.823 22.94 136.823 23.0232 136.782 23.0065C136.798 23.0315 136.832 23.0564 136.848 23.0731C137.405 23.6052 137.954 24.1374 138.511 24.6696C139.085 23.5387 139.875 22.5326 140.574 21.4516C141.63 19.8052 142.17 17.9426 142.104 15.9968C142.054 14.7495 141.655 12.9452 140.382 12.3631C138.462 11.4817 137.505 14.2839 137.198 15.5977C136.848 17.161 136.657 18.7492 136.657 20.354C136.657 21.1356 136.832 21.9838 136.774 22.7488H136.765Z" fill="#FF2948"/>
<path d="M147.508 32.1033C149.213 32.4276 150.918 32.7519 152.631 33.0845C156.165 27.1225 160.414 21.6095 165.303 16.6786C164.322 15.2401 163.257 13.8598 162.085 12.5875C161.885 12.3713 161.653 12.072 161.411 11.8974C160.946 11.5564 160.738 11.6978 160.272 11.9722C159.574 12.4046 158.925 12.9368 158.293 13.4773C155.732 15.6891 153.745 18.4248 152.098 21.3601C150.227 24.7943 148.839 28.4363 147.517 32.1116L147.508 32.1033Z" fill="#A2E846"/>
<path d="M2.81557 42.1731C5.06067 41.9153 7.31409 42.9963 9.0686 44.3683C11.5216 46.2974 13.4091 48.609 16.5357 49.4322C19.2797 50.1557 22.19 50.2388 24.7095 51.6607C26.8465 52.8664 28.4597 54.8039 29.366 57.049C30.7962 56.5417 32.2431 56.0345 33.6733 55.5356C33.1411 52.6752 32.268 49.8314 29.3327 48.5924C27.8526 47.9688 26.2395 47.6944 24.7012 47.2287C23.1629 46.7631 21.6744 46.1644 20.2276 45.4493C18.7641 44.7341 17.3589 43.886 16.0451 42.9297C14.6481 41.9153 13.3759 40.7262 11.9623 39.7367C10.6402 38.8137 9.19333 38.1152 7.58849 37.8658C6.79855 37.7327 5.97534 37.7161 5.19371 37.7826C3.97969 37.899 3.47247 38.2483 3.20638 39.454C3.01513 40.352 2.89872 41.2667 2.80725 42.1731H2.81557Z" fill="#FF2948"/>
<path d="M160.921 47.4615C162.243 49.956 163.565 52.4506 164.896 54.9452C165.794 54.4379 166.675 53.8725 167.482 53.2405C168.039 52.8081 168.563 52.3425 169.078 51.8602C169.361 51.5941 169.635 51.3114 169.893 51.0287C170.051 50.8624 170.467 50.5464 170.508 50.3302C170.591 49.9394 169.793 49.0247 169.577 48.6755C169.17 48.0103 168.754 47.3534 168.346 46.6798C167.673 45.6072 167.049 44.4763 166.351 43.4203C164.538 44.759 162.734 46.1061 160.921 47.4532V47.4615Z" fill="#91D8D8"/>
<path d="M46.2293 34.8557C46.4372 40.5599 46.9028 46.2642 47.593 51.9435C51.9169 45.5158 57.4215 39.9114 63.8409 35.4794C70.6261 30.8145 78.3675 27.5716 86.4333 25.9252C84.8867 24.5615 83.0656 23.5553 81.2113 22.6157C78.7833 21.3851 76.3054 20.2459 73.7859 19.1982C68.805 17.136 63.6829 15.4397 58.4443 14.1093C57.1388 13.785 55.8333 13.4773 54.5195 13.1946C53.214 12.9119 51.8005 12.4545 50.4617 12.4795C49.0065 12.5211 48.5076 14.3088 48.0836 15.4397C47.6429 16.6288 47.2936 17.8428 47.0192 19.0818C45.8634 24.2289 46.0463 29.6171 46.2293 34.8557Z" fill="#91D8D8"/>
<path d="M20.1445 66.3786C20.1445 66.3786 20.1445 66.3786 20.1278 66.3786C19.6788 69.7463 19.2381 73.1056 18.7808 76.465C21.7826 76.781 24.7428 77.3214 27.6531 78.0948C28.5179 75.7582 29.3743 73.4299 30.2308 71.1017C28.7258 69.8793 27.0793 68.8483 25.3165 68.0251C24.3603 67.5843 23.3708 67.2268 22.3646 66.9274C21.8823 66.7778 21.3917 66.653 20.8928 66.5449C20.6434 66.4867 20.4022 66.4285 20.1445 66.387V66.3786ZM16.5856 77.363C17.0928 73.5214 17.6 69.6798 18.1156 65.8382C18.1156 65.7883 18.1322 65.7301 18.1488 65.6885C18.1488 65.6469 18.1488 65.6136 18.1488 65.5721C18.4232 63.9506 20.0114 64.225 21.2088 64.4828C22.5725 64.7738 23.9113 65.1979 25.1918 65.7301C27.7612 66.7778 30.0978 68.2246 32.1932 70.029C32.4593 70.2535 32.5757 70.7275 32.4593 71.0518C31.4116 73.9039 30.3639 76.7643 29.3078 79.6164C29.1083 80.1486 28.601 80.4979 28.0273 80.3316C24.618 79.3587 21.1423 78.7184 17.6083 78.4191C17.1011 78.3775 16.5107 77.9451 16.5856 77.3547V77.363Z" fill="#630000"/>
<path d="M24.7095 47.2287C23.1712 46.7631 21.6828 46.1644 20.2359 45.4493C18.7724 44.7342 17.3672 43.886 16.0534 42.9298C14.6564 41.9153 13.3842 40.7262 11.9706 39.7367C10.6485 38.8137 9.20164 38.1153 7.5968 37.8658C6.80686 37.7328 5.98365 37.7161 5.20202 37.7827C3.988 37.8991 3.48078 38.2483 3.21469 39.454C3.02344 40.3521 2.90703 41.2667 2.81556 42.1731C5.06067 41.9153 7.31409 42.9963 9.06859 44.3683C11.5216 46.2974 13.4091 48.6091 16.5356 49.4323C19.2797 50.1557 22.19 50.2388 24.7095 51.6607C26.8465 52.8664 28.4596 54.8039 29.366 57.049C30.7962 56.5418 32.2431 56.0345 33.6733 55.5356C33.1411 52.6752 32.268 49.8314 29.3327 48.5924C27.8526 47.9688 26.2395 47.6944 24.7012 47.2287H24.7095ZM35.8685 55.9597C35.9683 56.5501 35.6856 57.0157 35.1201 57.2236C33.0746 57.9387 31.029 58.6621 28.9918 59.3772C28.4513 59.5685 27.8693 59.1361 27.7279 58.6289C27.0128 56.1842 25.2832 54.1137 22.9467 53.0826C20.5436 52.0266 17.8245 52.0183 15.3383 51.245C12.8104 50.4633 10.9561 48.792 9.02702 47.0541C7.11452 45.3329 4.60333 43.4703 1.91752 44.5346C1.28556 44.7841 0.595401 44.1188 0.620347 43.5118C0.703499 41.9486 0.894749 40.4019 1.21904 38.8803C1.53502 37.4833 2.20024 36.3774 3.63045 35.9616C5.01909 35.5459 6.59898 35.6041 8.01256 35.8369C11.0476 36.3358 13.3592 38.1319 15.6875 40.0194C18.1322 42.0151 20.8346 43.6449 23.7865 44.7342C26.4141 45.6987 29.4741 45.9482 31.8024 47.578C34.5547 49.5071 35.3197 52.8415 35.8685 55.9597Z" fill="#630000"/>
<path d="M51.5177 6.83343C53.0062 6.20979 54.5528 5.81897 56.1826 5.64435C56.9143 5.56952 57.2719 6.39272 57.1638 6.97479C56.8644 8.54636 56.1909 9.97658 55.218 11.2239C55.3012 11.2405 55.3677 11.2571 55.4425 11.2737C61.1883 12.521 66.826 14.234 72.3057 16.371C75.3574 17.56 78.3592 18.8822 81.2862 20.329C84.0551 21.6844 86.8324 23.1562 88.9361 25.4678C92.7196 24.8525 96.5529 24.5781 100.395 24.6779C102.731 24.7361 105.051 24.9439 107.354 25.2682C111.969 25.9335 116.509 27.1059 120.85 28.7773C121.573 29.06 122.297 29.351 123.004 29.6587C127.286 31.488 131.36 33.808 135.119 36.5603C145.288 44.019 152.996 54.4629 157.079 66.3952C161.22 78.5354 161.486 91.873 157.761 104.146C156.414 108.578 154.568 112.844 152.281 116.86C151.899 117.534 151.5 118.191 151.101 118.848C149.471 121.467 147.658 123.961 145.662 126.315C143.168 129.25 140.407 131.944 137.397 134.355C134.869 136.384 132.192 138.205 129.398 139.794C125.207 142.188 120.742 144.084 116.11 145.456C113.807 146.138 111.445 146.687 109.059 147.094C106.681 147.51 104.269 147.784 101.85 147.909C89.3685 148.574 76.7876 145.282 66.1774 138.679C55.534 132.052 47.0026 122.199 42.0883 110.657C40.841 107.73 39.8182 104.72 39.02 101.652C35.8851 89.2953 36.5753 76.1323 41.1819 64.2333C42.4625 60.9155 44.034 57.7308 45.8551 54.6958C45.0568 48.6256 44.4831 42.5306 44.2253 36.4189C44.0257 31.8456 43.8511 27.189 44.3583 22.6157C42.5539 22.8236 40.7579 23.0314 38.9535 23.2144C37.5648 23.3474 36.5171 22.5741 36.7084 21.094C36.8081 20.3789 37.0825 19.6721 37.2821 18.9903C37.5482 18.1005 38.0804 17.1027 37.49 16.2629C37.0992 15.7058 36.4755 15.2734 36.0016 14.7744C35.4444 14.1674 34.9206 13.5355 34.4383 12.862C33.6317 11.7643 32.6256 10.384 32.3262 9.02864C32.0103 7.57348 33.1993 7.02468 34.4134 6.96647C37.3653 6.80017 40.3504 7.08288 43.2524 7.68158C43.585 6.23473 44.0174 4.80452 44.5912 3.42419C45.0568 2.2767 45.6056 0.172949 47.1273 0.0981124C48.5243 0.0315907 49.414 1.96072 49.9628 2.96686C50.6363 4.18088 51.1519 5.49468 51.5094 6.84174L51.5177 6.83343ZM47.4516 56.0428C47.2271 56.417 47.0026 56.7912 46.7864 57.1737C40.8576 67.7257 38.2716 79.974 39.4191 92.031C39.7185 95.1076 40.2756 98.1427 41.0323 101.136C44.1338 113.093 50.8525 123.862 60.2986 131.844C69.4204 139.561 80.912 144.442 92.8027 145.614C105.276 146.845 118.014 144.068 128.833 137.748C135.318 133.956 141.006 128.934 145.621 123.047C148.39 119.521 150.76 115.679 152.681 111.605C157.869 100.604 159.549 88.0397 157.428 76.0658C155.258 63.8757 149.354 52.5255 140.515 43.8361C136.765 40.1525 132.541 37.001 127.984 34.4316C126.679 33.6999 125.357 33.0097 124.001 32.3777C119.27 30.1576 114.239 28.5444 109.067 27.6298C105.242 26.9479 101.359 26.6569 97.4759 26.7483C88.9362 26.9479 80.4297 28.9851 72.7464 32.7103C62.5437 37.6662 53.9208 45.5158 47.9921 55.1614C47.9755 55.5522 47.7593 55.8599 47.4682 56.0428H47.4516ZM47.0192 19.0817C45.8634 24.2288 46.0463 29.6171 46.2293 34.8557C46.4371 40.5599 46.9028 46.2641 47.593 51.9434C51.9169 45.5158 57.4215 39.9113 63.8409 35.4793C70.6261 30.8145 78.3675 27.5715 86.4333 25.9251C84.8866 24.5614 83.0656 23.5553 81.2113 22.6157C78.7833 21.385 76.3054 20.2459 73.7859 19.1981C68.805 17.136 63.6829 15.4397 58.4443 14.1092C57.1388 13.7849 55.8333 13.4773 54.5195 13.1946C53.214 12.9118 51.8004 12.4545 50.4617 12.4795C49.0065 12.521 48.5076 14.3088 48.0836 15.4397C47.6428 16.6287 47.2936 17.8428 47.0192 19.0817ZM46.0214 5.51963C45.6056 6.72533 45.298 7.95598 45.0485 9.20326C44.9487 9.7687 44.2752 10.0348 43.768 9.91837C41.1819 9.31136 38.546 9.0037 35.8851 9.0037C35.6357 9.0037 35.3862 9.0037 35.1368 9.02033C34.9455 9.02033 34.7626 9.02864 34.5797 9.04527C34.5547 9.04527 34.5381 9.04527 34.5215 9.04527C34.6878 9.47766 35.0536 9.97658 35.2532 10.3092C35.9184 11.4401 36.7167 12.4961 37.6313 13.444C38.3797 14.234 39.336 14.9158 39.7268 15.9718C40.1675 17.1609 39.6436 18.4082 39.3027 19.5557C39.2195 19.8135 39.1031 20.6782 38.9202 21.1356C38.9535 21.1273 38.9784 21.1356 39.0033 21.1356C39.336 21.1023 39.6769 21.0607 40.0095 21.0192C41.4813 20.8529 42.9614 20.7032 44.4332 20.5369C44.508 20.5286 44.5829 20.5203 44.6577 20.5369C44.7325 20.0879 44.799 19.6305 44.8905 19.1898C45.1649 17.8428 45.5225 16.504 45.9881 15.1985C46.4122 14.0094 46.8778 12.6624 47.6927 11.6812C48.9816 10.1512 51.0188 10.2759 52.9396 10.6751C53.7379 9.87679 54.3116 8.97044 54.7108 7.97261C53.53 8.23038 52.4075 8.65446 51.3265 9.21158C50.761 9.50261 49.9295 9.26147 49.8048 8.56299C49.5637 7.33234 49.2144 6.11832 48.6906 4.97914C48.4411 4.42202 48.1418 3.88153 47.8175 3.35767C47.6678 3.0999 47.5015 2.85045 47.3269 2.60099C47.119 3.06664 46.6783 3.84827 46.6201 3.98963C46.4122 4.48854 46.2209 5.00408 46.0463 5.51963H46.0214Z" fill="#630000"/>
<path d="M136.724 22.9483C136.724 22.9483 136.69 22.9151 136.674 22.8984C136.657 22.8901 136.64 22.8652 136.624 22.8568C136.657 22.8818 136.682 22.9151 136.724 22.94V22.9483ZM136.624 22.8485C136.624 22.8485 136.574 22.7986 136.566 22.7986L136.624 22.8485ZM143.301 20.7365C142.395 22.8568 140.49 24.5199 139.917 26.7816C139.725 27.5632 138.719 27.7462 138.187 27.2223C137.189 26.2661 136.15 25.3431 135.194 24.3536C134.811 23.9628 134.778 23.5054 134.72 22.9733C134.628 22.1417 134.57 21.2936 134.578 20.4538C134.578 18.6244 134.794 16.8117 135.194 15.0322C135.726 12.7622 137.081 10.1263 139.792 10.1429C141.912 10.1595 143.318 12.0471 143.866 13.9097C144.523 16.1049 144.174 18.6577 143.301 20.7365ZM137.189 15.5977C136.84 17.1609 136.649 18.7491 136.649 20.354C136.649 21.1356 136.823 21.9838 136.765 22.7487C136.823 22.94 136.823 23.0231 136.782 23.0065C136.798 23.0315 136.832 23.0564 136.848 23.073C137.405 23.6052 137.954 24.1374 138.511 24.6696C139.085 23.5387 139.875 22.5326 140.574 21.4516C141.63 19.8052 142.17 17.9426 142.104 15.9968C142.054 14.7495 141.655 12.9451 140.382 12.3631C138.461 11.4816 137.505 14.2839 137.198 15.5977H137.189Z" fill="#630000"/>
<path d="M167.473 53.2406C168.03 52.8082 168.554 52.3426 169.07 51.8603C169.352 51.5942 169.627 51.3115 169.885 51.0288C170.043 50.8625 170.458 50.5465 170.5 50.3303C170.583 49.9395 169.785 49.0248 169.569 48.6756C169.161 48.0104 168.745 47.3535 168.338 46.6799C167.664 45.6073 167.041 44.4764 166.342 43.4204C164.53 44.7591 162.725 46.1062 160.912 47.4532C162.235 49.9478 163.557 52.4424 164.887 54.9369C165.785 54.4297 166.667 53.8643 167.473 53.2323V53.2406ZM165.744 41.3C165.81 41.2501 165.885 41.2168 165.968 41.1919C166.342 41.0256 166.783 40.9757 167.149 41.1919C167.565 41.4164 167.781 41.8405 168.022 42.2313C168.546 43.0711 169.078 43.9276 169.602 44.7674C170.117 45.6239 170.65 46.4637 171.173 47.3202C171.664 48.1018 172.396 48.9749 172.579 49.8979C172.778 50.8625 172.196 51.5942 171.589 52.2594C170.982 52.9246 170.342 53.54 169.66 54.1303C168.23 55.3527 166.667 56.4087 164.987 57.2569C164.496 57.5063 163.839 57.3899 163.565 56.8744C161.935 53.8061 160.314 50.7461 158.684 47.6861C158.393 47.1539 158.609 46.6134 159.067 46.2725C161.295 44.6094 163.515 42.963 165.744 41.3Z" fill="#630000"/>
<path d="M152.631 33.0846C156.165 27.1226 160.414 21.6096 165.303 16.6787C164.322 15.2402 163.257 13.8599 162.085 12.5876C161.885 12.3714 161.653 12.0721 161.411 11.8975C160.946 11.5565 160.738 11.6979 160.272 11.9723C159.574 12.4047 158.925 12.9369 158.293 13.4774C155.732 15.6892 153.745 18.4249 152.098 21.3602C150.227 24.7944 148.839 28.4364 147.517 32.1117C149.221 32.436 150.926 32.7603 152.639 33.0929L152.631 33.0846ZM145.122 32.6023C146.627 28.4115 148.157 24.2206 150.302 20.2958C152.356 16.6288 154.967 13.2612 158.385 10.7666C159.133 10.2261 159.965 9.56921 160.929 9.56921C161.786 9.56921 162.509 10.0681 163.099 10.6336C164.804 12.2883 166.251 14.3089 167.54 16.2962C167.789 16.6787 167.689 17.2358 167.373 17.5518C162.185 22.6823 157.711 28.4614 154.061 34.7809C153.811 35.205 153.337 35.338 152.872 35.2466C150.535 34.7975 148.182 34.3485 145.845 33.8995C145.313 33.808 144.956 33.1096 145.13 32.619L145.122 32.6023Z" fill="#630000"/>
</svg>
